# xmcd
#
# Track frame offsets:
#	187
#	11862
#	22730
#	36365
#	49135
#	61507
#	74555
#	88045
#	100425
#	112735
#	125262
#	137032
#
# Disc length: 1998 seconds
#
# Revision: 0
# Processed by: cddbd v1.4PL0 Copyright (c) Steve Scherf et al.
# Submitted via: audiograbber 1.81.00
#
DISCID=9b07cc0c
DTITLE=Ray Price - Greatest Hits
DYEAR=1900
DGENRE=Country
TTITLE0=Crazy Arms
TTITLE1=You Done Me Wrong
TTITLE2=City Lights
TTITLE3=Invitation To The Blues
TTITLE4=I've Got A New Heartache
TTITLE5=Who'll Be The First
TTITLE6=Heartaches By The Number
TTITLE7=The Same Old Me
TTITLE8=Release Me
TTITLE9=One More Time
TTITLE10=My Shoes Keep Walking Back To You
TTITLE11=I'll Be There (When You Get Lonely)
EXTD=
EXTT0=
EXTT1=
EXTT2=
EXTT3=
EXTT4=
EXTT5=
EXTT6=
EXTT7=
EXTT8=
EXTT9=
EXTT10=
EXTT11=
PLAYORDER=
